<mxfile host="65bd71144e">
    <diagram id="u1IXutD8dk-Endy1BjFs" name="Generals">
        <mxGraphModel dx="1374" dy="790" grid="1" gridSize="10" guides="1" tooltips="1" connect="1" arrows="1" fold="1" page="1" pageScale="1" pageWidth="1169" pageHeight="827" math="0" shadow="0">
            <root>
                <mxCell id="0"/>
                <mxCell id="1" parent="0"/>
                <mxCell id="LfYBDEKyyAqHcAtLNoyd-1" value="ENDPOINT" style="ellipse;whiteSpace=wrap;html=1;fillColor=#d80073;fontColor=#ffffff;strokeColor=#A50040;fillStyle=solid;gradientColor=none;verticalAlign=top;fontSize=18;" parent="1" vertex="1">
                    <mxGeometry x="279" y="100" width="590" height="592.32" as="geometry"/>
                </mxCell>
                <mxCell id="LfYBDEKyyAqHcAtLNoyd-2" value="APPLICATION" style="ellipse;whiteSpace=wrap;html=1;fillColor=#A10056;fontColor=#ffffff;strokeColor=#A50040;fillStyle=solid;gradientColor=none;verticalAlign=top;fontSize=18;" parent="1" vertex="1">
                    <mxGeometry x="310" y="131" width="530" height="530" as="geometry"/>
                </mxCell>
                <mxCell id="LfYBDEKyyAqHcAtLNoyd-3" value="DOMAIN" style="ellipse;whiteSpace=wrap;html=1;fillColor=#75003F;fontColor=#ffffff;strokeColor=#A50040;fillStyle=solid;gradientColor=none;verticalAlign=top;fontSize=18;" parent="1" vertex="1">
                    <mxGeometry x="349.5" y="170.5" width="451" height="451" as="geometry"/>
                </mxCell>
                <mxCell id="LfYBDEKyyAqHcAtLNoyd-4" value="INFRA" style="ellipse;whiteSpace=wrap;html=1;fillColor=#52002C;fontColor=#ffffff;strokeColor=#A50040;fillStyle=solid;gradientColor=none;verticalAlign=top;fontSize=18;" parent="1" vertex="1">
                    <mxGeometry x="379.05" y="203" width="391.91" height="387" as="geometry"/>
                </mxCell>
                <mxCell id="LfYBDEKyyAqHcAtLNoyd-5" value="API" style="text;html=1;strokeColor=#2D7600;fillColor=#60a917;align=center;verticalAlign=middle;whiteSpace=wrap;rounded=0;fillStyle=solid;fontSize=33;fontColor=#ffffff;" parent="1" vertex="1">
                    <mxGeometry x="639" y="80" width="60" height="30" as="geometry"/>
                </mxCell>
                <mxCell id="LfYBDEKyyAqHcAtLNoyd-6" value="SERVICES" style="text;html=1;strokeColor=#2D7600;fillColor=#60a917;align=center;verticalAlign=middle;whiteSpace=wrap;rounded=0;fillStyle=solid;fontSize=33;fontColor=#ffffff;" parent="1" vertex="1">
                    <mxGeometry x="639" y="120" width="180" height="30" as="geometry"/>
                </mxCell>
                <mxCell id="LfYBDEKyyAqHcAtLNoyd-7" value="SERVICES" style="text;html=1;strokeColor=#2D7600;fillColor=#60a917;align=center;verticalAlign=middle;whiteSpace=wrap;rounded=0;fillStyle=solid;fontSize=33;fontColor=#ffffff;" parent="1" vertex="1">
                    <mxGeometry x="639" y="160" width="180" height="30" as="geometry"/>
                </mxCell>
                <mxCell id="LfYBDEKyyAqHcAtLNoyd-8" value="REPOSITORY" style="text;html=1;strokeColor=#2D7600;fillColor=#60a917;align=center;verticalAlign=middle;whiteSpace=wrap;rounded=0;fillStyle=solid;fontSize=33;fontColor=#ffffff;" parent="1" vertex="1">
                    <mxGeometry x="639" y="200" width="230" height="30" as="geometry"/>
                </mxCell>
                <mxCell id="LfYBDEKyyAqHcAtLNoyd-9" value="ENDPOINT" style="rounded=0;whiteSpace=wrap;html=1;fillStyle=solid;fontSize=33;fillColor=#F50082;fontColor=#ffffff;strokeColor=#A50040;" parent="1" vertex="1">
                    <mxGeometry x="229" y="760" width="710" height="60" as="geometry"/>
                </mxCell>
                <mxCell id="LfYBDEKyyAqHcAtLNoyd-10" value="IAPPSERVICE" style="rounded=0;whiteSpace=wrap;html=1;fillStyle=solid;fontSize=33;fillColor=#E6007A;fontColor=#ffffff;strokeColor=#A50040;" parent="1" vertex="1">
                    <mxGeometry x="229" y="830" width="710" height="60" as="geometry"/>
                </mxCell>
                <mxCell id="LfYBDEKyyAqHcAtLNoyd-11" value="APPSERVICE : IAPPSERVICE" style="rounded=0;whiteSpace=wrap;html=1;fillStyle=solid;fontSize=33;fillColor=#DE0075;fontColor=#ffffff;strokeColor=#A50040;" parent="1" vertex="1">
                    <mxGeometry x="229" y="900" width="710" height="60" as="geometry"/>
                </mxCell>
                <mxCell id="LfYBDEKyyAqHcAtLNoyd-12" value="ISERVICE" style="rounded=0;whiteSpace=wrap;html=1;fillStyle=solid;fontSize=33;fillColor=#AB005B;fontColor=#ffffff;strokeColor=#A50040;" parent="1" vertex="1">
                    <mxGeometry x="229" y="970" width="710" height="60" as="geometry"/>
                </mxCell>
                <mxCell id="LfYBDEKyyAqHcAtLNoyd-13" value="SERVICE : ISERVICE" style="rounded=0;whiteSpace=wrap;html=1;fillStyle=solid;fontSize=33;fillColor=#75003E;fontColor=#ffffff;strokeColor=#A50040;" parent="1" vertex="1">
                    <mxGeometry x="229" y="1040" width="710" height="60" as="geometry"/>
                </mxCell>
                <mxCell id="LfYBDEKyyAqHcAtLNoyd-14" value="IREPOSITORY" style="rounded=0;whiteSpace=wrap;html=1;fillStyle=solid;fontSize=33;fillColor=#4A0027;fontColor=#ffffff;strokeColor=#A50040;" parent="1" vertex="1">
                    <mxGeometry x="229" y="1109" width="710" height="60" as="geometry"/>
                </mxCell>
                <mxCell id="LfYBDEKyyAqHcAtLNoyd-15" value="REPOSITORY : IREPOSITORY" style="rounded=0;whiteSpace=wrap;html=1;fillStyle=solid;fontSize=33;fillColor=#400021;fontColor=#ffffff;strokeColor=#A50040;" parent="1" vertex="1">
                    <mxGeometry x="229" y="1180" width="710" height="60" as="geometry"/>
                </mxCell>
            </root>
        </mxGraphModel>
    </diagram>
    <diagram id="DSsbAIlcqv7BRWnvYmcu" name="MeuContábil">
        <mxGraphModel dx="1374" dy="790" grid="1" gridSize="10" guides="1" tooltips="1" connect="1" arrows="1" fold="1" page="1" pageScale="1" pageWidth="1169" pageHeight="827" math="0" shadow="0">
            <root>
                <mxCell id="-aVwV55BCkjT_lEpZEUD-0"/>
                <mxCell id="-aVwV55BCkjT_lEpZEUD-1" parent="-aVwV55BCkjT_lEpZEUD-0"/>
                <mxCell id="-aVwV55BCkjT_lEpZEUD-2" value="USUÁRIOS" style="rounded=0;whiteSpace=wrap;html=1;fontSize=16;" parent="-aVwV55BCkjT_lEpZEUD-1" vertex="1">
                    <mxGeometry x="290" y="220" width="120" height="60" as="geometry"/>
                </mxCell>
                <mxCell id="-aVwV55BCkjT_lEpZEUD-3" value="USUÁRIOS" style="rounded=0;whiteSpace=wrap;html=1;fontSize=16;" parent="-aVwV55BCkjT_lEpZEUD-1" vertex="1">
                    <mxGeometry x="250" y="330" width="120" height="60" as="geometry"/>
                </mxCell>
            </root>
        </mxGraphModel>
    </diagram>
    <diagram id="Wj2LYPqPcA__i0NgV-oc" name="Sistema de comissionamento">
        <mxGraphModel dx="1616" dy="929" grid="1" gridSize="10" guides="1" tooltips="1" connect="1" arrows="1" fold="1" page="1" pageScale="1" pageWidth="1169" pageHeight="827" math="0" shadow="0">
            <root>
                <mxCell id="wrlVPqRzvrdlxc0rmfAz-0"/>
                <mxCell id="wrlVPqRzvrdlxc0rmfAz-1" parent="wrlVPqRzvrdlxc0rmfAz-0"/>
                <mxCell id="wrlVPqRzvrdlxc0rmfAz-2" value="VENDEDOR" style="rounded=0;whiteSpace=wrap;html=1;fillColor=#0050ef;fontColor=#ffffff;strokeColor=#001DBC;" vertex="1" parent="wrlVPqRzvrdlxc0rmfAz-1">
                    <mxGeometry x="540" y="310" width="120" height="60" as="geometry"/>
                </mxCell>
                <mxCell id="wrlVPqRzvrdlxc0rmfAz-5" style="edgeStyle=none;html=1;entryX=1;entryY=0.5;entryDx=0;entryDy=0;" edge="1" parent="wrlVPqRzvrdlxc0rmfAz-1" source="wrlVPqRzvrdlxc0rmfAz-3" target="wrlVPqRzvrdlxc0rmfAz-7">
                    <mxGeometry relative="1" as="geometry"/>
                </mxCell>
                <mxCell id="wrlVPqRzvrdlxc0rmfAz-24" value="" style="edgeStyle=none;html=1;" edge="1" parent="wrlVPqRzvrdlxc0rmfAz-1" source="wrlVPqRzvrdlxc0rmfAz-3" target="wrlVPqRzvrdlxc0rmfAz-23">
                    <mxGeometry relative="1" as="geometry"/>
                </mxCell>
                <mxCell id="wrlVPqRzvrdlxc0rmfAz-26" style="edgeStyle=none;html=1;" edge="1" parent="wrlVPqRzvrdlxc0rmfAz-1" source="wrlVPqRzvrdlxc0rmfAz-3" target="wrlVPqRzvrdlxc0rmfAz-25">
                    <mxGeometry relative="1" as="geometry"/>
                </mxCell>
                <mxCell id="wrlVPqRzvrdlxc0rmfAz-3" value="CONTRATO 100" style="rounded=0;whiteSpace=wrap;html=1;fillColor=#d80073;fontColor=#ffffff;strokeColor=#A50040;" vertex="1" parent="wrlVPqRzvrdlxc0rmfAz-1">
                    <mxGeometry x="760" y="200" width="120" height="60" as="geometry"/>
                </mxCell>
                <mxCell id="wrlVPqRzvrdlxc0rmfAz-14" style="edgeStyle=none;html=1;entryX=0.5;entryY=1;entryDx=0;entryDy=0;" edge="1" parent="wrlVPqRzvrdlxc0rmfAz-1" source="wrlVPqRzvrdlxc0rmfAz-6" target="wrlVPqRzvrdlxc0rmfAz-2">
                    <mxGeometry relative="1" as="geometry"/>
                </mxCell>
                <mxCell id="wrlVPqRzvrdlxc0rmfAz-6" value="VENDEDOR&lt;br&gt;COMISSÃO" style="rounded=0;whiteSpace=wrap;html=1;fillColor=#1ba1e2;fontColor=#ffffff;strokeColor=#006EAF;" vertex="1" parent="wrlVPqRzvrdlxc0rmfAz-1">
                    <mxGeometry x="540" y="423.5" width="120" height="60" as="geometry"/>
                </mxCell>
                <mxCell id="wrlVPqRzvrdlxc0rmfAz-8" style="edgeStyle=none;html=1;" edge="1" parent="wrlVPqRzvrdlxc0rmfAz-1" source="wrlVPqRzvrdlxc0rmfAz-7" target="wrlVPqRzvrdlxc0rmfAz-2">
                    <mxGeometry relative="1" as="geometry"/>
                </mxCell>
                <mxCell id="wrlVPqRzvrdlxc0rmfAz-7" value="VENDEDOR&lt;br&gt;CONTRATO" style="rounded=0;whiteSpace=wrap;html=1;fillColor=#008a00;fontColor=#ffffff;strokeColor=#005700;" vertex="1" parent="wrlVPqRzvrdlxc0rmfAz-1">
                    <mxGeometry x="540" y="200" width="120" height="60" as="geometry"/>
                </mxCell>
                <mxCell id="wrlVPqRzvrdlxc0rmfAz-12" style="edgeStyle=none;html=1;" edge="1" parent="wrlVPqRzvrdlxc0rmfAz-1" source="wrlVPqRzvrdlxc0rmfAz-11" target="wrlVPqRzvrdlxc0rmfAz-7">
                    <mxGeometry relative="1" as="geometry"/>
                </mxCell>
                <mxCell id="wrlVPqRzvrdlxc0rmfAz-31" style="edgeStyle=none;html=1;" edge="1" parent="wrlVPqRzvrdlxc0rmfAz-1" source="wrlVPqRzvrdlxc0rmfAz-11" target="wrlVPqRzvrdlxc0rmfAz-6">
                    <mxGeometry relative="1" as="geometry"/>
                </mxCell>
                <mxCell id="wrlVPqRzvrdlxc0rmfAz-11" value="GERAR COMISSÃO" style="ellipse;whiteSpace=wrap;html=1;fillColor=#a20025;fontColor=#ffffff;strokeColor=#6F0000;" vertex="1" parent="wrlVPqRzvrdlxc0rmfAz-1">
                    <mxGeometry x="250" y="300" width="120" height="80" as="geometry"/>
                </mxCell>
                <mxCell id="wrlVPqRzvrdlxc0rmfAz-15" value="Comissão 1" style="text;html=1;strokeColor=none;fillColor=none;align=left;verticalAlign=middle;whiteSpace=wrap;rounded=0;" vertex="1" parent="wrlVPqRzvrdlxc0rmfAz-1">
                    <mxGeometry x="540" y="490" width="95" height="30" as="geometry"/>
                </mxCell>
                <mxCell id="wrlVPqRzvrdlxc0rmfAz-19" style="edgeStyle=none;html=1;" edge="1" parent="wrlVPqRzvrdlxc0rmfAz-1" source="wrlVPqRzvrdlxc0rmfAz-18" target="wrlVPqRzvrdlxc0rmfAz-7">
                    <mxGeometry relative="1" as="geometry"/>
                </mxCell>
                <mxCell id="wrlVPqRzvrdlxc0rmfAz-18" value="CONTRATO 200" style="rounded=0;whiteSpace=wrap;html=1;fillColor=#d80073;fontColor=#ffffff;strokeColor=#A50040;" vertex="1" parent="wrlVPqRzvrdlxc0rmfAz-1">
                    <mxGeometry x="760" y="280" width="120" height="60" as="geometry"/>
                </mxCell>
                <mxCell id="wrlVPqRzvrdlxc0rmfAz-23" value="FATURA 1&lt;br&gt;50,00&lt;br&gt;Ok" style="rhombus;whiteSpace=wrap;html=1;fillColor=#6a00ff;strokeColor=#3700CC;fontColor=#ffffff;rounded=0;" vertex="1" parent="wrlVPqRzvrdlxc0rmfAz-1">
                    <mxGeometry x="950" y="145" width="80" height="80" as="geometry"/>
                </mxCell>
                <mxCell id="wrlVPqRzvrdlxc0rmfAz-25" value="FATURA 2&lt;br&gt;50,00&lt;br&gt;Not" style="rhombus;whiteSpace=wrap;html=1;fillColor=#6a00ff;strokeColor=#3700CC;fontColor=#ffffff;rounded=0;" vertex="1" parent="wrlVPqRzvrdlxc0rmfAz-1">
                    <mxGeometry x="950" y="235" width="80" height="80" as="geometry"/>
                </mxCell>
                <mxCell id="wrlVPqRzvrdlxc0rmfAz-27" value="" style="edgeStyle=none;html=1;exitX=0.631;exitY=0.987;exitDx=0;exitDy=0;exitPerimeter=0;" edge="1" parent="wrlVPqRzvrdlxc0rmfAz-1" target="wrlVPqRzvrdlxc0rmfAz-29" source="wrlVPqRzvrdlxc0rmfAz-18">
                    <mxGeometry relative="1" as="geometry">
                        <mxPoint x="810" y="459.1176470588234" as="sourcePoint"/>
                    </mxGeometry>
                </mxCell>
                <mxCell id="wrlVPqRzvrdlxc0rmfAz-28" style="edgeStyle=none;html=1;exitX=0.367;exitY=0.987;exitDx=0;exitDy=0;exitPerimeter=0;" edge="1" parent="wrlVPqRzvrdlxc0rmfAz-1" target="wrlVPqRzvrdlxc0rmfAz-30" source="wrlVPqRzvrdlxc0rmfAz-18">
                    <mxGeometry relative="1" as="geometry">
                        <mxPoint x="810" y="490.8823529411766" as="sourcePoint"/>
                    </mxGeometry>
                </mxCell>
                <mxCell id="wrlVPqRzvrdlxc0rmfAz-29" value="FATURA 1&lt;br&gt;50,00&lt;br&gt;Ok" style="rhombus;whiteSpace=wrap;html=1;fillColor=#6a00ff;strokeColor=#3700CC;fontColor=#ffffff;rounded=0;" vertex="1" parent="wrlVPqRzvrdlxc0rmfAz-1">
                    <mxGeometry x="860" y="403.5" width="80" height="80" as="geometry"/>
                </mxCell>
                <mxCell id="wrlVPqRzvrdlxc0rmfAz-30" value="FATURA 2&lt;br&gt;50,00&lt;br&gt;Ok" style="rhombus;whiteSpace=wrap;html=1;fillColor=#6a00ff;strokeColor=#3700CC;fontColor=#ffffff;rounded=0;" vertex="1" parent="wrlVPqRzvrdlxc0rmfAz-1">
                    <mxGeometry x="760" y="403.5" width="80" height="80" as="geometry"/>
                </mxCell>
            </root>
        </mxGraphModel>
    </diagram>
    <diagram id="_PEAkL8ZyvsT3TMfhOcb" name="Page-4">
        <mxGraphModel dx="1374" dy="790" grid="1" gridSize="10" guides="1" tooltips="1" connect="1" arrows="1" fold="1" page="1" pageScale="1" pageWidth="1169" pageHeight="827" math="0" shadow="0">
            <root>
                <mxCell id="ctTpjqzGOIby9-2lLc3x-0"/>
                <mxCell id="ctTpjqzGOIby9-2lLc3x-1" parent="ctTpjqzGOIby9-2lLc3x-0"/>
                <mxCell id="ctTpjqzGOIby9-2lLc3x-2" value="DEV FRONT" style="rounded=0;whiteSpace=wrap;html=1;" vertex="1" parent="ctTpjqzGOIby9-2lLc3x-1">
                    <mxGeometry x="270" y="180" width="120" height="60" as="geometry"/>
                </mxCell>
                <mxCell id="ctTpjqzGOIby9-2lLc3x-3" value="DEV BACK" style="rounded=0;whiteSpace=wrap;html=1;" vertex="1" parent="ctTpjqzGOIby9-2lLc3x-1">
                    <mxGeometry x="330" y="330" width="120" height="60" as="geometry"/>
                </mxCell>
                <mxCell id="ctTpjqzGOIby9-2lLc3x-4" value="DEVOPS 1" style="rounded=0;whiteSpace=wrap;html=1;" vertex="1" parent="ctTpjqzGOIby9-2lLc3x-1">
                    <mxGeometry x="560" y="280" width="120" height="60" as="geometry"/>
                </mxCell>
                <mxCell id="ctTpjqzGOIby9-2lLc3x-5" value="PO&lt;br&gt;ANALISTA DE NEGÓCIOS" style="rounded=0;whiteSpace=wrap;html=1;" vertex="1" parent="ctTpjqzGOIby9-2lLc3x-1">
                    <mxGeometry x="320" y="480" width="120" height="60" as="geometry"/>
                </mxCell>
                <mxCell id="ctTpjqzGOIby9-2lLc3x-6" value="SM&lt;br&gt;ANALISTA DE SISTEMA" style="rounded=0;whiteSpace=wrap;html=1;" vertex="1" parent="ctTpjqzGOIby9-2lLc3x-1">
                    <mxGeometry x="140" y="440" width="120" height="60" as="geometry"/>
                </mxCell>
            </root>
        </mxGraphModel>
    </diagram>
</mxfile>